<svg aria-hidden="true" style="position: absolute; width: 0; height: 0; overflow: hidden;" version="1.1" xmlns="http://www.w3.org/2000/svg" xmlns:xlink="http://www.w3.org/1999/xlink">
    <defs>
        <symbol id="icon-question" viewBox="0 0 32 32">
            <path d="M14.557 20.275v-0.096c0.010-1.021 0.118-1.834 0.32-2.435 0.202-0.605 0.493-1.091 0.867-1.466s0.822-0.72 1.347-1.034c0.317-0.192 0.598-0.419 0.851-0.685 0.25-0.266 0.451-0.57 0.598-0.918s0.221-0.733 0.221-1.155c0-0.525-0.122-0.979-0.368-1.363s-0.573-0.682-0.986-0.89c-0.413-0.208-0.867-0.314-1.37-0.314-0.438 0-0.861 0.090-1.267 0.272s-0.746 0.467-1.018 0.858-0.429 0.899-0.474 1.53h-2.019c0.042-0.909 0.278-1.686 0.71-2.333 0.429-0.646 0.998-1.139 1.706-1.482s1.494-0.512 2.362-0.512c0.941 0 1.76 0.186 2.458 0.56s1.238 0.886 1.619 1.539 0.573 1.395 0.573 2.227c0 0.589-0.090 1.12-0.269 1.594-0.179 0.477-0.435 0.899-0.768 1.274s-0.736 0.704-1.206 0.992c-0.47 0.294-0.848 0.602-1.13 0.925s-0.49 0.707-0.618 1.149c-0.128 0.445-0.198 0.995-0.208 1.658v0.096h-1.923zM15.584 25.021c-0.397 0-0.736-0.141-1.018-0.426-0.285-0.282-0.426-0.624-0.426-1.018s0.141-0.736 0.426-1.018c0.282-0.282 0.621-0.426 1.018-0.426s0.736 0.141 1.018 0.426 0.426 0.624 0.426 1.018c0 0.262-0.067 0.502-0.195 0.72s-0.304 0.394-0.522 0.525-0.458 0.195-0.726 0.195z"/>
            <path d="M16 32c-8.822 0-16-7.178-16-16s7.178-16 16-16 16 7.178 16 16-7.178 16-16 16zM16 1.28c-8.115 0-14.72 6.605-14.72 14.72s6.605 14.72 14.72 14.72 14.72-6.605 14.72-14.72-6.605-14.72-14.72-14.72z"/>
        </symbol>
    </defs>
</svg>
