<?xml version="1.0" encoding="utf-8"?>
<!-- Generator: Adobe Illustrator 27.7.0, SVG Export Plug-In . SVG Version: 6.00 Build 0)  -->
<svg version="1.1" id="Layer_1" xmlns="http://www.w3.org/2000/svg" xmlns:xlink="http://www.w3.org/1999/xlink" x="0px" y="0px"
	 viewBox="0 0 365.6 367.7" style="enable-background:new 0 0 365.6 367.7;" xml:space="preserve">
<style type="text/css">
	.st0{fill:#F97316;}
</style>
	<g transform="translate(-117.15 -272.36)">
	<path class="st0" d="M328.7,272.4c-1.1,0-2.2,0.2-3.7,0.7l-160.8,47.2c-1.3,0.3-1.3,0.7-0.1,1.5l142.7,113.9
		c2.6,2.2,3.9,2.4,7.5,1.3l160.1-55.5c3.7-1.3,3.9-1.7,0.1-4.2L334.1,274.7C332,273.2,330.5,272.4,328.7,272.4L328.7,272.4z
		 M310.4,286.2c3.2,0,6.6,0.3,10.1,1.1c14,3.1,24,11.6,22.1,19.1s-14.6,11-28.7,7.9s-24-11.6-22.1-19
		C293.2,289.7,300.8,286.2,310.4,286.2L310.4,286.2z M219.8,313.7c3.2,0,6.7,0.3,10.2,1.1c14,3.1,23.9,11.6,22.1,19s-14.6,11-28.7,8
		s-23.9-11.6-22.1-19.1C202.6,317.1,210.1,313.8,219.8,313.7L219.8,313.7z M357.1,320.7c3.2,0,6.7,0.4,10.2,1.2
		c14,3.1,23.9,11.6,22.1,19s-14.6,11-28.7,7.9s-23.9-11.6-22.1-19C340,324.2,347.5,320.8,357.1,320.7z M154.2,329.6
		c-0.3,0.1-0.4,0.5-0.6,1.5l-36.3,181.3c-0.4,1.9-0.3,2.4,1.4,3.9L256.4,635c3.2,3.1,3.9,3,4.3-0.7l40.1-183.9c0.8-2.5,0-3.9-1.5-5
		L155.7,330.5C154.9,329.8,154.5,329.5,154.2,329.6L154.2,329.6z M266,350.3c3.2,0,6.7,0.3,10.2,1.1c14,3.1,23.9,11.6,22.1,19
		s-14.6,11-28.7,7.9s-23.9-11.6-22.1-19C248.9,353.7,256.4,350.3,266,350.3L266,350.3z M404.8,356.3c3.2,0,6.7,0.3,10.2,1.1
		c14,3.1,23.9,11.6,22.1,19s-14.6,11-28.7,8s-23.9-11.6-22.1-19.1C387.7,359.8,395.2,356.4,404.8,356.3L404.8,356.3z M163.1,363
		c0.5-0.1,1.1,0,1.7,0c6.6,0.3,13.7,6.5,17.9,16.4c5.6,13.2,3.7,28.1-4.1,33.1s-18.6-1.5-24.2-14.8s-3.7-28.1,4.1-33.1
		C160,363.7,161.5,363.2,163.1,363L163.1,363z M313.8,386.8c3.2,0,6.7,0.3,10.2,1.1c14,3.1,23.9,11.6,22.1,19s-14.6,11-28.7,7.9
		s-23.9-11.6-22.1-19C296.6,390.2,304.1,386.9,313.8,386.8L313.8,386.8z M481.9,391.9c-0.3,0.1-0.7,0.2-1.2,0.4l-164.4,57
		c-3.3,1.4-3.2,1.9-3.8,4.5L272.5,637c-0.1,2.7-1.1,3.9,2,2.5l162-60.5c3.1-1.5,3.7-1.8,4.1-4.8l42-180.8
		C482.9,392.1,482.9,391.7,481.9,391.9L481.9,391.9z M455.3,421.6c4.6,0.1,8.3,2.3,9.9,6.7c3.2,8.6-3,22.5-13.9,30.9
		s-22.4,8.2-25.6-0.4s3-22.5,13.9-30.9C445,423.6,450.6,421.5,455.3,421.6L455.3,421.6z M256,437.5c6.7,0.2,14,6.4,18.2,16.5
		c5.6,13.2,3.8,28.1-4,33.1s-18.6-1.6-24.2-14.8s-3.7-28,4.1-33c1.5-0.9,3-1.5,4.6-1.7C255.1,437.5,255.6,437.5,256,437.5L256,437.5
		z M197.3,458.7c6.7,0.2,14,6.4,18.2,16.5c5.6,13.2,3.8,28.1-4,33.1s-18.6-1.6-24.2-14.8s-3.7-28,4.1-33c1.5-0.9,3-1.5,4.6-1.7
		C196.5,458.7,196.9,458.7,197.3,458.7L197.3,458.7z M139.5,479.6c0.5-0.1,1.1,0,1.7,0c6.6,0.3,13.7,6.6,17.8,16.5
		c5.6,13.2,3.8,28-4,33s-18.6-1.5-24.2-14.8s-3.7-28.1,4.1-33.1C136.4,480.4,137.9,479.8,139.5,479.6L139.5,479.6z M393.6,497.2
		c4.5,0.1,8.1,2.4,9.7,6.7c3.2,8.6-3,22.5-14,30.9s-22.4,8.2-25.6-0.4s3-22.5,14-30.9c4.8-3.7,9.6-5.7,13.9-6.1
		C392.3,497.2,392.9,497.2,393.6,497.2L393.6,497.2z M229.3,555.9c0.5-0.1,1.1,0,1.7,0c6.6,0.3,13.7,6.5,17.9,16.4
		c5.6,13.2,3.7,28.1-4.1,33.1s-18.6-1.5-24.1-14.8s-3.8-28.1,4-33.1C226.2,556.6,227.7,556,229.3,555.9L229.3,555.9z M326.6,574.9
		c4.6,0.1,8.3,2.3,9.9,6.6c3.2,8.6-3,22.5-13.9,30.9s-22.4,8.3-25.6-0.4s3-22.5,13.9-30.9C316.4,576.9,322,574.8,326.6,574.9
		L326.6,574.9z"/>
</g>
</svg>
